# xmcd
#
# Track frame offsets:
#	150
#	12916
#	24328
#	36866
#	48502
#	59259
#	71359
#	83434
#	97259
#	110664
#	123760
#	135455
#
# Disc length: 1980 seconds
#
# Revision: 1
# Processed by: cddbd v1.5.2PL0 Copyright (c) Steve Scherf et al.
# Submitted via: EasyCDDAExtractor 5.1.0
#
DISCID=9507ba0c
DTITLE=Roy Rogers
DYEAR=2003
DGENRE=Country
TTITLE0=Tumbling Tumbleweeds
TTITLE1=Hi-Ho Silver
TTITLE2=Don't Fence Me In
TTITLE3=Hold That Critter Down
TTITLE4=My Chickashay Gal
TTITLE5=On the Old Spanish Trail 
TTITLE6=I've Sold My Saddle for an Old Guitar
TTITLE7=There's a Round Up in the Sky 
TTITLE8=Moonlight In The Prairie
TTITLE9=Cowboy Night Herd Song 
TTITLE10=Ride, Ranger, Ride 
TTITLE11=Echoes from the Hills 
EXTD=
EXTT0=
EXTT1=
EXTT2=
EXTT3=
EXTT4=
EXTT5=
EXTT6=
EXTT7=
EXTT8=
EXTT9=
EXTT10=
EXTT11=
PLAYORDER=
